<?xml version="1.0" encoding="UTF-8"?>
<svg width="32px" height="30px" viewBox="0 0 32 30" version="1.1" xmlns="http://www.w3.org/2000/svg" xmlns:xlink="http://www.w3.org/1999/xlink">
    <!-- Generator: Sketch 52.5 (67469) - http://www.bohemiancoding.com/sketch -->
    <title>Icon_FT_1</title>
    <desc>Created with Sketch.</desc>
    <defs>
        <linearGradient x1="19.0680659%" y1="-15.256052%" x2="71.1505762%" y2="110.852481%" id="linearGradient-1">
            <stop stop-color="#FF7678" offset="10%"></stop>
            <stop stop-color="#AD0000" offset="100%"></stop>
        </linearGradient>
        <linearGradient x1="26.6161827%" y1="99.7958876%" x2="77.9642339%" y2="20.4639937%" id="linearGradient-2">
            <stop stop-color="#FF7678" offset="10%"></stop>
            <stop stop-color="#AD0000" offset="100%"></stop>
        </linearGradient>
        <linearGradient x1="33.8444445%" y1="109.122375%" x2="114.003891%" y2="8.41672873%" id="linearGradient-3">
            <stop stop-color="#FF7678" offset="10%"></stop>
            <stop stop-color="#AD0000" offset="100%"></stop>
        </linearGradient>
        <linearGradient x1="37.2196361%" y1="-45.9224828%" x2="69.7158111%" y2="89.9316925%" id="linearGradient-4">
            <stop stop-color="#DB0100" offset="10%"></stop>
            <stop stop-color="#6B1616" offset="100%"></stop>
        </linearGradient>
    </defs>
    <g id="Main-Page" stroke="none" stroke-width="1" fill="none" fill-rule="evenodd">
        <g id="Icon_FT_1">
            <path d="M8.25842246,23.8516043 C7.26759767,22.5292558 6.48949487,21.0601977 5.95227273,19.4975936 C3.48214209,17.9651772 1.44651557,15.8246001 0.0401069519,13.280615 C0.013368984,13.6466578 0,14.0163102 0,14.3895722 C8.63836631e-16,23.0025401 6.975,29.9847594 15.5791444,29.9847594 C18.3075297,29.9889308 20.9886546,29.2726821 23.3514706,27.9084225 C18.2342246,30.3966578 12.1042781,28.9572193 8.25842246,23.8516043 Z" id="Path" fill="url(#linearGradient-1)"></path>
            <path d="M13.990508,9.8959893 C12.9003159,7.57287886 12.3368866,5.03758363 12.340508,2.47139037 C12.3400769,1.64455836 12.39784,0.818721206 12.513369,1.70530257e-13 C11.4200678,0.61100354 10.4189267,1.37394493 9.53983957,2.26604278 C5.1842246,6.65775401 3.91604278,13.6243316 5.95227273,19.4975936 C11.6328027,23.0078967 18.8469132,22.8474644 24.3657754,19.0881016 C24.4609626,19.0231283 24.5553476,18.9573529 24.6489305,18.8907754 C22.5395404,18.3619825 20.5619477,17.4036337 18.8398396,16.0756684 C16.7772427,14.4086337 15.119273,12.2958227 13.990508,9.8959893 Z" id="Path" fill="url(#linearGradient-2)"></path>
            <path d="M31.0363636,9.98663102 C30.9491979,10.2756684 30.8549465,10.5613636 30.7536096,10.8437166 C29.5838312,14.0840444 27.4543496,16.8909421 24.6489305,18.8903743 C25.912235,19.2059305 27.2095122,19.3651436 28.511631,19.3644385 C29.1375721,19.3643873 29.7629734,19.3276935 30.3846257,19.2545455 C30.4544118,19.2465241 30.5237968,19.2377005 30.5931818,19.2284759 C31.5573529,16.2834225 31.7141711,13.043984 31.0363636,9.98663102 Z" id="Path" fill="url(#linearGradient-3)"></path>
            <path d="M30.3846257,19.2549465 C29.7629734,19.3280946 29.1375721,19.3647884 28.511631,19.3648396 C27.2094956,19.3654135 25.9122182,19.2060657 24.6489305,18.8903743 C24.5550802,18.9569519 24.4606952,19.0227273 24.3657754,19.0877005 C18.8469132,22.8470633 11.6328027,23.0074956 5.95227273,19.4971925 C6.48949487,21.0597966 7.26759767,22.5288547 8.25842246,23.8512032 C12.1042781,28.9572193 18.2342246,30.3966578 23.3514706,27.9084225 C24.6762364,27.2577233 25.8813483,26.387553 26.9157754,25.3347594 C28.4362299,23.8018717 29.5796791,21.9549465 30.3385027,19.9504011 C30.4291444,19.7121658 30.5140374,19.4715241 30.5931818,19.2284759 C30.5237968,19.2381016 30.4544118,19.2469251 30.3846257,19.2549465 Z" id="Path" fill="url(#linearGradient-4)"></path>
        </g>
    </g>
</svg>
